# Blender v2.79 (sub 0) OBJ File: ''
# www.blender.org
mtllib floor_corner.mtl
o entry_1168_pkOBJ
v -2.552734 8.078126 -5.501952
v -2.919922 7.925782 -5.843749
v 13.300781 7.925782 -5.843749
v 12.933594 8.078126 -5.501952
v 13.300781 7.925782 -5.843749
v 13.621094 7.925782 -5.523436
v 13.253906 8.078126 -5.181639
v -2.873047 8.078126 -5.181639
v -2.919922 7.925782 -5.843749
v -3.240234 7.925782 -5.523436
v 13.621094 7.925782 -5.523436
v 13.621094 7.925780 5.697267
v 13.253906 8.078124 5.355470
v 13.621094 7.925780 5.697267
v 13.300781 7.925780 6.017580
v 12.933594 8.078124 5.675783
v -2.873047 8.078124 5.355470
v -3.240234 7.925782 -5.523436
v -3.240234 7.925780 5.697267
v 13.300781 7.925780 6.017580
v -2.919922 7.925780 6.017580
v -2.552734 8.078124 5.675783
v -3.240234 7.925780 5.697267
v -2.919922 7.925780 6.017580
v -2.552734 8.078123 8.808595
v -2.919922 7.925780 8.468751
v 13.300781 7.925780 8.468751
v 12.933594 8.078123 8.808595
v 13.300781 7.925780 8.468751
v 13.621094 7.925780 8.789063
v 13.253906 8.078123 9.128907
v -2.873047 8.078123 9.128907
v -2.919922 7.925780 8.468751
v -3.240234 7.925780 8.789063
v 13.621094 7.925780 8.789063
v 13.621094 7.925779 12.441407
v 13.253906 8.078123 12.099610
v 13.621094 7.925779 12.441407
v 13.300781 7.925779 12.761720
v 12.933594 8.078123 12.419923
v -2.873047 8.078123 12.099610
v -3.240234 7.925780 8.789063
v -3.240234 7.925779 12.441407
v 13.300781 7.925779 12.761720
v -2.919922 7.925779 12.761720
v -2.552734 8.078123 12.419923
v -3.240234 7.925779 12.441407
v -2.919922 7.925779 12.761720
v -2.552734 8.101565 -15.755858
v -2.919922 7.949221 -15.416015
v -3.240234 7.949221 -15.734374
v -2.873047 8.101565 -16.076170
v 12.933594 8.101565 -15.755858
v -2.919922 7.949221 -15.416015
v 13.300781 7.949221 -15.416015
v -3.240234 7.949221 -15.734374
v -3.287109 7.949223 -23.177732
v 13.253906 8.101565 -16.076170
v 13.300781 7.949221 -15.416015
v 13.621094 7.949221 -15.734374
v -2.873047 8.101566 -23.062498
v -3.236328 8.101566 -23.689451
v -3.410156 7.949223 -23.474607
v -9.062500 7.949224 -29.238279
v -8.562500 8.101567 -29.255857
v -9.062500 7.949224 -29.238279
v -9.062500 7.949224 -29.691404
v -8.562500 8.101567 -29.708982
v -9.062500 7.949224 -29.691404
v 2.406250 7.949225 -41.162109
v 2.386719 8.101569 -40.660156
v 2.406250 7.949225 -41.162109
v 2.857422 7.949225 -41.162109
v 2.839844 8.101569 -40.660156
v 12.900391 8.101567 -30.601561
v 2.857422 7.949225 -41.162109
v 13.457031 7.949224 -30.804686
v 13.253906 8.101567 -29.869139
v 13.744141 7.949224 -30.042967
v 13.621094 7.949221 -15.734374
v -3.230469 7.925779 15.644532
v -2.912109 7.925779 15.324220
v -2.544922 8.078122 15.666017
v -2.865234 8.078122 15.984376
v 12.941406 8.078122 15.666017
v -2.912109 7.925779 15.324220
v 13.308594 7.925779 15.324220
v -3.279297 7.925777 23.085939
v -3.230469 7.925779 15.644532
v 13.261719 8.078122 15.984376
v 13.308594 7.925779 15.324220
v 13.628906 7.925779 15.644532
v -2.865234 8.078121 23.056643
v -3.156250 8.078121 23.765627
v -3.402344 7.925777 23.382814
v -9.054688 7.925776 29.146486
v -8.339844 8.078120 29.208986
v -9.054688 7.925776 29.599611
v -9.054688 7.925776 29.146486
v -8.339844 8.078120 29.660158
v 2.414062 7.925775 41.070312
v -9.054688 7.925776 29.599611
v 2.349609 8.078118 40.500000
v 2.867188 7.925775 41.070312
v 2.414062 7.925775 41.070312
v 2.802734 8.078118 40.500000
v 12.908203 8.078120 30.509768
v 13.464844 7.925776 30.712893
v 2.867188 7.925775 41.070312
v 13.261719 8.078120 29.779299
v 13.751953 7.925776 29.951174
v 13.628906 7.925779 15.644532
v -2.552734 8.078127 -12.712890
v -2.919922 7.925783 -13.052733
v 13.300781 7.925783 -13.052733
v 12.933594 8.078127 -12.712890
v 13.300781 7.925783 -13.052733
v 13.621094 7.925783 -12.732421
v 13.253906 8.078127 -12.392577
v -2.873047 8.078127 -12.392577
v -2.919922 7.925783 -13.052733
v -3.240234 7.925783 -12.732421
v 13.621094 7.925783 -12.732421
v 13.621094 7.925783 -9.080077
v 13.253906 8.078127 -9.421874
v 13.621094 7.925783 -9.080077
v 13.300781 7.925783 -8.759765
v 12.933594 8.078127 -9.101562
v -2.873047 8.078127 -9.421874
v -3.240234 7.925783 -12.732421
v -3.240234 7.925783 -9.080077
v 13.300781 7.925783 -8.759765
v -2.919922 7.925783 -8.759765
v -2.552734 8.078127 -9.101562
v -3.240234 7.925783 -9.080077
v -2.919922 7.925783 -8.759765
vt 1.006348 0.001953
vt 1.514160 0.001953
vt 1.502930 0.013672
vt 1.018066 0.013672
vt 0.996094 0.012695
vt 1.006348 0.001953
vt 1.008301 0.023438
vt 1.512695 0.023438
vt 1.514160 0.001953
vt 1.524902 0.012695
vt 0.996094 0.364258
vt 0.996094 0.012695
vt 1.008301 0.353516
vt 1.006348 0.374512
vt 0.996094 0.364258
vt 1.018066 0.363281
vt 1.512695 0.353516
vt 1.524902 0.012695
vt 1.524902 0.364258
vt 1.514160 0.374512
vt 1.006348 0.374512
vt 1.502930 0.363281
vt 1.524902 0.364258
vt 1.514160 0.374512
vt 1.577148 0.175293
vt 2.086914 0.175293
vt 2.075195 0.187012
vt 1.588867 0.187012
vt 1.566895 0.186035
vt 1.577148 0.175293
vt 1.579102 0.196777
vt 2.084961 0.196777
vt 2.086914 0.175293
vt 2.097168 0.186035
vt 1.566895 0.300781
vt 1.566895 0.186035
vt 1.579102 0.290039
vt 1.577148 0.311523
vt 1.566895 0.300781
vt 1.588867 0.300293
vt 2.084961 0.290039
vt 2.097168 0.186035
vt 2.097168 0.300781
vt 2.086914 0.311523
vt 1.577148 0.311523
vt 2.075195 0.300293
vt 2.097168 0.300781
vt 2.086914 0.311523
vt 0.010254 1.925781
vt 0.000000 1.915527
vt 0.011230 1.903809
vt 0.020996 1.914062
vt 0.011230 1.419434
vt 0.000000 1.915527
vt 0.000000 1.407715
vt 0.243164 1.927734
vt 0.010254 1.925781
vt 0.021484 1.409668
vt 0.000000 1.407715
vt 0.010254 1.397461
vt 0.242188 1.914062
vt 0.264648 1.923340
vt 0.251953 1.931641
vt 0.432617 2.108398
vt 0.433594 2.091797
vt 0.447754 2.107910
vt 0.432617 2.108398
vt 0.447754 2.091797
vt 0.806152 1.749023
vt 0.447754 2.107910
vt 0.790039 1.749023
vt 0.806152 1.734375
vt 0.806152 1.749023
vt 0.790039 1.734863
vt 0.475098 1.420898
vt 0.481934 1.402832
vt 0.806152 1.734375
vt 0.452637 1.409668
vt 0.458008 1.394043
vt 0.010254 1.397461
vt 1.643555 1.034668
vt 1.642578 1.051270
vt 1.657227 1.051758
vt 1.657227 1.035645
vt 1.316406 0.677734
vt 1.642578 1.051270
vt 1.300293 0.677246
vt 1.657227 1.051758
vt 1.830566 0.896484
vt 1.317383 0.664062
vt 1.300293 0.677246
vt 1.300781 0.662109
vt 1.820801 0.886719
vt 1.843262 0.878418
vt 1.839844 0.893066
vt 2.092285 0.901367
vt 2.082031 0.889160
vt 2.092285 0.901367
vt 2.103027 0.891602
vt 2.092285 0.879395
vt 2.103027 0.891602
vt 2.125488 0.384277
vt 2.113770 0.395508
vt 2.125488 0.384277
vt 2.115723 0.373535
vt 2.104004 0.385254
vt 1.659668 0.365723
vt 2.115723 0.373535
vt 1.652832 0.348145
vt 1.635742 0.373047
vt 1.628906 0.357422
vt 1.300781 0.662109
vt 1.575195 0.000488
vt 2.084473 0.000488
vt 2.072754 0.011719
vt 1.586914 0.011719
vt 1.564453 0.010742
vt 1.575195 0.000488
vt 1.576660 0.021484
vt 2.082520 0.021484
vt 2.084473 0.000488
vt 2.094727 0.010742
vt 1.564453 0.125977
vt 1.564453 0.010742
vt 1.576660 0.114746
vt 1.575195 0.136230
vt 1.564453 0.125977
vt 1.586914 0.125000
vt 2.082520 0.114746
vt 2.094727 0.010742
vt 2.094727 0.125977
vt 2.084473 0.136230
vt 1.575195 0.136230
vt 2.072754 0.125000
vt 2.094727 0.125977
vt 2.084473 0.136230
vn 0.0000 0.9134 -0.4071
vn -0.0517 0.9767 -0.2080
vn 0.0517 0.9767 -0.2080
vn 0.2056 0.9568 -0.2056
vn 0.1965 0.9790 -0.0538
vn -0.1965 0.9790 -0.0538
vn -0.2056 0.9568 -0.2056
vn 0.3832 0.9236 0.0000
vn 0.1965 0.9790 0.0538
vn 0.2056 0.9568 0.2056
vn 0.0517 0.9767 0.2080
vn -0.1965 0.9790 0.0538
vn -0.3832 0.9236 0.0000
vn 0.0000 0.9134 0.4071
vn -0.0517 0.9767 0.2080
vn -0.2056 0.9568 0.2056
vn 0.0000 0.9125 -0.4090
vn -0.0517 0.9765 -0.2090
vn 0.0517 0.9765 -0.2090
vn 0.2061 0.9566 -0.2061
vn 0.1966 0.9790 -0.0541
vn -0.1966 0.9790 -0.0541
vn -0.2061 0.9566 -0.2061
vn -0.2055 0.9567 0.2062
vn -0.2055 0.9565 0.2068
vn -0.0516 0.9765 0.2090
vn -0.1954 0.9792 0.0547
vn 0.0517 0.9765 0.2090
vn 0.0000 0.9125 0.4090
vn -0.3936 0.9086 0.1393
vn -0.3813 0.9244 0.0024
vn 0.1965 0.9790 0.0540
vn 0.2055 0.9567 0.2062
vn 0.2050 0.9568 0.2062
vn -0.1542 0.9875 0.0304
vn -0.1845 0.9732 0.1372
vn -0.4318 0.8629 0.2625
vn -0.2763 0.9239 0.2647
vn -0.1769 0.9795 0.0963
vn -0.2915 0.9566 0.0000
vn -0.1840 0.9767 -0.1107
vn -0.2884 0.9131 -0.2883
vn -0.2883 0.9131 -0.2883
vn -0.1109 0.9767 -0.1837
vn 0.0000 0.9569 -0.2904
vn 0.0983 0.9793 -0.1765
vn 0.1152 0.9894 -0.0876
vn 0.2210 0.9647 -0.1429
vn 0.2653 0.9251 -0.2715
vn 0.1585 0.9870 -0.0271
vn 0.2788 0.9588 -0.0541
vn 0.3797 0.9251 0.0001
vn -0.2062 0.9568 -0.2049
vn -0.2061 0.9566 -0.2060
vn -0.1962 0.9790 -0.0553
vn 0.0514 0.9767 -0.2080
vn -0.3829 0.9237 -0.0025
vn -0.3495 0.9333 -0.0827
vn 0.1965 0.9790 -0.0542
vn 0.2056 0.9567 -0.2062
vn -0.1556 0.9874 -0.0265
vn -0.1227 0.9885 -0.0884
vn -0.3040 0.9361 -0.1771
vn -0.1926 0.9639 -0.1838
vn -0.1237 0.9902 -0.0648
vn -0.2084 0.9780 0.0000
vn -0.1364 0.9868 0.0863
vn -0.2211 0.9498 0.2211
vn -0.2785 0.9203 0.2748
vn -0.1116 0.9788 0.1717
vn 0.0000 0.9661 0.2581
vn 0.0797 0.9852 0.1517
vn 0.1152 0.9894 0.0883
vn 0.2228 0.9478 0.2280
vn 0.2204 0.9648 0.1433
vn 0.1585 0.9870 0.0272
vn 0.2790 0.9588 0.0541
vn 0.3797 0.9251 -0.0001
g entry_1168_pkOBJ_entry_1168_pkOBJ_Material.023
usemtl Material.023
s 1
f 3/1/1 2/2/1 1/3/2
f 1/3/2 4/4/3 3/1/1
f 6/5/4 5/6/4 4/4/3
f 4/4/3 7/7/5 6/5/4
f 4/4/3 1/3/2 8/8/6
f 8/8/6 7/7/5 4/4/3
f 8/8/6 1/3/2 9/9/7
f 9/9/7 10/10/7 8/8/6
f 12/11/8 11/12/8 7/7/5
f 7/7/5 13/13/9 12/11/8
f 15/14/10 14/15/10 13/13/9
f 13/13/9 16/16/11 15/14/10
f 17/17/12 13/13/9 7/7/5
f 16/16/11 13/13/9 17/17/12
f 7/7/5 8/8/6 17/17/12
f 17/17/12 8/8/6 18/18/13
f 18/18/13 19/19/13 17/17/12
f 21/20/14 20/21/14 16/16/11
f 16/16/11 22/22/15 21/20/14
f 17/17/12 22/22/15 16/16/11
f 22/22/15 17/17/12 23/23/16
f 23/23/16 24/24/16 22/22/15
f 27/25/17 26/26/17 25/27/18
f 25/27/18 28/28/19 27/25/17
f 30/29/20 29/30/20 28/28/19
f 28/28/19 31/31/21 30/29/20
f 28/28/19 25/27/18 32/32/22
f 32/32/22 31/31/21 28/28/19
f 32/32/22 25/27/18 33/33/23
f 33/33/23 34/34/23 32/32/22
f 36/35/8 35/36/8 31/31/21
f 31/31/21 37/37/9 36/35/8
f 39/38/10 38/39/10 37/37/9
f 37/37/9 40/40/11 39/38/10
f 41/41/12 37/37/9 31/31/21
f 40/40/11 37/37/9 41/41/12
f 31/31/21 32/32/22 41/41/12
f 41/41/12 32/32/22 42/42/13
f 42/42/13 43/43/13 41/41/12
f 45/44/14 44/45/14 40/40/11
f 40/40/11 46/46/15 45/44/14
f 41/41/12 46/46/15 40/40/11
f 46/46/15 41/41/12 47/47/16
f 47/47/16 48/48/16 46/46/15
f 51/49/24 50/50/25 49/51/26
f 49/51/26 52/52/27 51/49/24
f 52/52/27 49/51/26 53/53/28
f 53/53/28 49/51/26 54/54/29
f 54/54/29 55/55/29 53/53/28
f 57/56/30 56/57/31 52/52/27
f 53/53/28 58/58/32 52/52/27
f 58/58/32 53/53/28 59/59/33
f 59/59/33 60/60/34 58/58/32
f 52/52/27 61/61/35 57/56/30
f 61/61/35 52/52/27 58/58/32
f 57/56/30 61/61/35 62/62/36
f 62/62/36 63/63/37 57/56/30
f 64/64/38 63/63/37 62/62/36
f 62/62/36 65/65/39 64/64/38
f 67/66/40 66/67/40 65/65/39
f 65/65/39 68/68/41 67/66/40
f 70/69/42 69/70/43 68/68/41
f 68/68/41 71/71/44 70/69/42
f 71/71/44 68/68/41 65/65/39
f 73/72/45 72/73/45 71/71/44
f 71/71/44 74/74/46 73/72/45
f 65/65/39 74/74/46 71/71/44
f 74/74/46 65/65/39 62/62/36
f 62/62/36 75/75/47 74/74/46
f 75/75/47 62/62/36 61/61/35
f 77/76/48 76/77/49 74/74/46
f 74/74/46 75/75/47 77/76/48
f 61/61/35 78/78/50 75/75/47
f 77/76/48 75/75/47 78/78/50
f 58/58/32 78/78/50 61/61/35
f 78/78/50 79/79/51 77/76/48
f 78/78/50 58/58/32 80/80/52
f 80/80/52 79/79/51 78/78/50
f 83/81/2 82/82/53 81/83/54
f 81/83/54 84/84/55 83/81/2
f 85/85/56 83/81/2 84/84/55
f 86/86/1 83/81/2 85/85/56
f 85/85/56 87/87/1 86/86/1
f 84/84/55 89/88/57 88/89/58
f 84/84/55 90/90/59 85/85/56
f 91/91/60 85/85/56 90/90/59
f 90/90/59 92/92/20 91/91/60
f 88/89/58 93/93/61 84/84/55
f 90/90/59 84/84/55 93/93/61
f 94/94/62 93/93/61 88/89/58
f 88/89/58 95/95/63 94/94/62
f 94/94/62 95/95/63 96/96/64
f 96/96/64 97/97/65 94/94/62
f 97/97/65 99/98/66 98/99/66
f 98/99/66 100/100/67 97/97/65
f 100/100/67 102/101/68 101/102/69
f 101/102/69 103/103/70 100/100/67
f 103/103/70 105/104/71 104/105/71
f 104/105/71 106/106/72 103/103/70
f 100/100/67 103/103/70 106/106/72
f 106/106/72 97/97/65 100/100/67
f 94/94/62 97/97/65 106/106/72
f 106/106/72 107/107/73 94/94/62
f 93/93/61 94/94/62 107/107/73
f 106/106/72 109/108/74 108/109/75
f 108/109/75 107/107/73 106/106/72
f 107/107/73 110/110/76 93/93/61
f 110/110/76 107/107/73 108/109/75
f 93/93/61 110/110/76 90/90/59
f 108/109/75 111/111/77 110/110/76
f 112/112/78 90/90/59 110/110/76
f 110/110/76 111/111/77 112/112/78
f 115/113/17 114/114/17 113/115/18
f 113/115/18 116/116/19 115/113/17
f 118/117/20 117/118/20 116/116/19
f 116/116/19 119/119/21 118/117/20
f 116/116/19 113/115/18 120/120/22
f 120/120/22 119/119/21 116/116/19
f 120/120/22 113/115/18 121/121/23
f 121/121/23 122/122/23 120/120/22
f 124/123/8 123/124/8 119/119/21
f 119/119/21 125/125/9 124/123/8
f 127/126/10 126/127/10 125/125/9
f 125/125/9 128/128/11 127/126/10
f 129/129/12 125/125/9 119/119/21
f 128/128/11 125/125/9 129/129/12
f 119/119/21 120/120/22 129/129/12
f 129/129/12 120/120/22 130/130/13
f 130/130/13 131/131/13 129/129/12
f 133/132/14 132/133/14 128/128/11
f 128/128/11 134/134/15 133/132/14
f 129/129/12 134/134/15 128/128/11
f 134/134/15 129/129/12 135/135/16
f 135/135/16 136/136/16 134/134/15
o entry_1167_pkOBJ
v 3.435547 7.199226 -45.794922
v 3.435547 8.023445 -45.251953
v -13.533203 8.023442 -28.283201
v -14.076172 7.199224 -28.283201
v -10.447266 7.255863 -24.589842
v -10.017578 8.023441 -24.767576
v -10.017578 8.023434 24.767580
v -10.447266 7.255856 24.589846
v 20.205078 7.214839 29.169924
v 19.718750 8.023433 28.968752
v 19.718750 8.023442 -28.968748
v 20.205078 7.214849 -29.169920
v -14.076172 7.199214 28.283205
v -13.533203 8.023433 28.283205
v 3.435547 8.023430 45.251953
v 3.435547 7.199211 45.794922
v 20.205078 7.214849 -29.169920
v 19.718750 8.023442 -28.968748
v 3.435547 8.023445 -45.251953
v 3.435547 7.199226 -45.794922
v -14.076172 7.199224 -28.283201
v -13.533203 8.023442 -28.283201
v -10.017578 8.023441 -24.767576
v -10.447266 7.255863 -24.589842
v 3.435547 7.199211 45.794922
v 3.435547 8.023430 45.251953
v 19.718750 8.023433 28.968752
v 20.205078 7.214839 29.169924
v -10.447266 7.255856 24.589846
v -10.017578 8.023434 24.767580
v -13.533203 8.023433 28.283205
v -14.076172 7.199214 28.283205
v 19.718750 8.023433 28.968752
v 3.435547 8.023430 45.251953
v -13.533203 8.023433 28.283205
v -10.017578 8.023434 24.767580
v 19.718750 8.023442 -28.968748
v -10.017578 8.023441 -24.767576
v -13.533203 8.023442 -28.283201
v 3.435547 8.023445 -45.251953
vt 0.771484 0.079102
vt 0.023926 0.082520
vt 0.008301 0.067383
vt 0.786133 0.062012
vt 1.874512 1.333984
vt 0.773926 0.233887
vt 0.797363 0.222168
vt 1.886230 1.310547
vt 0.022949 0.801270
vt 1.307129 2.084961
vt 1.297363 2.108398
vt 0.000000 0.811035
vt 2.025879 2.083984
vt 2.029297 1.336426
vt 2.046387 1.321777
vt 2.041016 2.099609
vt 0.023926 0.082520
vt 0.022949 0.801270
vt 0.000000 0.811035
vt 0.008301 0.067383
vt 0.773926 0.233887
vt 0.771484 0.079102
vt 0.786133 0.062012
vt 0.797363 0.222168
vt 1.307129 2.084961
vt 2.025879 2.083984
vt 2.041016 2.099609
vt 1.297363 2.108398
vt 2.029297 1.336426
vt 1.874512 1.333984
vt 1.886230 1.310547
vt 2.046387 1.321777
vt 2.029297 1.336426
vt 2.025879 2.083984
vt 1.307129 2.084961
vt 1.874512 1.333984
vt 0.022949 0.801270
vt 0.773926 0.233887
vt 0.771484 0.079102
vt 0.023926 0.082520
vn -0.6409 0.4223 -0.6409
vn -0.8726 0.4884 0.0000
vn 0.8569 0.5154 0.0000
vn -0.6409 0.4223 0.6409
vn -0.6409 0.4222 0.6409
vn 0.6369 0.4258 -0.6427
vn 0.6060 0.5152 -0.6060
vn 0.6070 0.5127 -0.6072
vn 0.6374 0.4238 -0.6434
vn -0.6274 0.4823 0.6113
vn -0.6390 0.4319 0.6364
vn -0.6253 0.4906 0.6069
vn 0.6043 0.5126 0.6099
vn 0.6409 0.4223 0.6409
vn 0.6398 0.4255 0.6400
vn 0.6034 0.5145 0.6092
vn -0.6455 0.4328 -0.6293
vn -0.6171 0.4883 -0.6171
vn -0.6205 0.4819 -0.6186
vn -0.6482 0.4270 -0.6304
vn 0.0000 1.0000 0.0000
g entry_1167_pkOBJ_entry_1167_pkOBJ_Material.020
usemtl Material.020
s 1
f 139/137/79 138/138/79 137/139/79
f 137/139/79 140/140/79 139/137/79
f 143/141/80 142/142/80 141/143/80
f 141/143/80 144/144/80 143/141/80
f 147/145/81 146/146/81 145/147/81
f 145/147/81 148/148/81 147/145/81
f 151/149/82 150/150/83 149/151/82
f 149/151/82 152/152/82 151/149/82
f 155/153/84 154/154/85 153/155/86
f 153/155/86 156/156/87 155/153/84
f 159/157/88 158/158/82 157/159/89
f 157/159/89 160/160/90 159/157/88
f 163/161/91 162/162/92 161/163/93
f 161/163/93 164/164/94 163/161/91
f 167/165/95 166/166/96 165/167/97
f 165/167/97 168/168/98 167/165/95
f 171/169/99 170/170/99 169/171/99
f 169/171/99 172/172/99 171/169/99
f 172/172/99 169/171/99 173/173/99
f 173/173/99 174/174/99 172/172/99
f 175/175/99 174/174/99 173/173/99
f 173/173/99 176/176/99 175/175/99
